<?xml version="1.0" encoding="iso-8859-1"?>
<!-- Generator: Adobe Illustrator 19.0.0, SVG Export Plug-In . SVG Version: 6.00 Build 0)  -->
<svg version="1.1" id="Capa_1" xmlns="http://www.w3.org/2000/svg" xmlns:xlink="http://www.w3.org/1999/xlink" x="0px" y="0px"
	 viewBox="0 0 464 464" style="enable-background:new 0 0 464 464;" xml:space="preserve">
<path style="fill:#78B9EB;" d="M462.56,184c-0.802-1.757-1.913-3.356-3.28-4.72l-62.72-62.64c-3.038-2.966-7.114-4.631-11.36-4.64
	H296v320H192V112h-48v320H64V112H16c-8.826,0.026-15.974,7.174-16,16v320c0.026,8.826,7.174,15.974,16,16h432
	c8.826-0.026,15.974-7.174,16-16V190.64C464.009,188.348,463.518,186.082,462.56,184L462.56,184z"/>
<path style="fill:#FF7956;" d="M104,48H64v64v320h80V112V48H104z"/>
<path style="fill:#FFE477;" d="M192,0v48v48v16v32v48v48v48v48v48v48h104V112V0H192z"/>
<path style="fill:#1E81CE;" d="M464,192h-64c-13.255,0-24-10.745-24-24v-56h15.672L464,184V192z"/>
<path style="fill:#FF5023;" d="M96,48h16v360H96V48z"/>
<g>
	<path style="fill:#E0E0E2;" d="M192,40h24v16h-24V40z"/>
	<path style="fill:#E0E0E2;" d="M192,88h24v16h-24V88z"/>
	<path style="fill:#E0E0E2;" d="M192,136h24v16h-24V136z"/>
	<path style="fill:#E0E0E2;" d="M192,184h24v16h-24V184z"/>
	<path style="fill:#E0E0E2;" d="M192,232h24v16h-24V232z"/>
	<path style="fill:#E0E0E2;" d="M192,280h24v16h-24V280z"/>
	<path style="fill:#E0E0E2;" d="M192,328h24v16h-24V328z"/>
	<path style="fill:#E0E0E2;" d="M192,376h24v16h-24V376z"/>
</g>
<path style="fill:#3E3D42;" d="M144,48L104,0L64,48h40H144z"/>
<g>
</g>
<g>
</g>
<g>
</g>
<g>
</g>
<g>
</g>
<g>
</g>
<g>
</g>
<g>
</g>
<g>
</g>
<g>
</g>
<g>
</g>
<g>
</g>
<g>
</g>
<g>
</g>
<g>
</g>
</svg>
